/* XPM */
static char *result[] = {
/* columns rows colors chars-per-pixel */
"64 64 11 1 ",
"  c gray20",
". c #68462F",
"X c #725035",
"o c #494949",
"O c #686868",
"+ c #976A44",
"@ c #9F714A",
"# c #B1805C",
"$ c #B88764",
"% c #C1926B",
"& c black",
/* pixels */
"..XX...X..........XX.....X..XX.XXXXXXXXX..X..XXX...X......XXXXXX",
".++++@@@@@#@@++++++++@++++++@@@#@++@@#@@+@++@+++++++@#@@@@@+++@X",
"X+#$$##$$$####$$$##$$#############################$$$$$#######+X",
"X+##$$$$##$$$$$######$$#$$###$$$$####$$###$$###########$#$$$$#+.",
".+$$#########$#$$#########$$$$#########$$$###$$###$$$$$$$$####+.",
".@###$####$$$$$##$$###$$$$$$####$$##$$$$######$$$$$$#########$+.",
".@##$$$$$$####$$####$$###$$$$#####$$$$##$$###$###$###$$$$#$$$#+X",
".@$$##$#$$$$####$$$$$###$$#######$##$$$###$$$###$$$#####$$$$##+X",
"X@##########$$$$##$$##$$######$$$##$##$$$$$$##$$$######$$$####@.",
"X######$##$$###$$$########$$$$####$$#$$$#####$######$$########@X",
"X@###$$$$$$#######$$##$$$$$$$$$$#$$#######$$$###$$$$####$$##$$#.",
"X@#$$$####$$$$######$$$%%%%%%%%$##$###$$######$$$##$$$$###$$$#@.",
".@####$$####$$$$$$$$%%%&&&&&&&&%$#$#@%%$$$$$$$#############$##@X",
"X@##$##$$$#####$$$%%&&&&&&&&&&&%$#$#@&&%%%$$####$$#####$$$$###+X",
".@$$$$#####$$###$@&&&&&&&&&&&&&%$##$+&&&&&%%%$$$$$$$$$$$######+.",
".+##$$$$####$$$#@&&&&&&&&&&&&&&%$#$$+&&&&&&&&%%$$$$$###$$#####+.",
"X+###$##$$$$###+&&&&&&&&&&&&&&&%$$#$+&&&&&&&&&&%$$######$$$$#$@.",
"X+#$$#####$$$$#+&&&&&&&&&&&&&&&%$$#$+&&&&&&&&&&&%$$$$#####$$$#@.",
".+####$$$$####+&&&&&&&&&&&&&&&&%$###+&&&&&&&&&&&&%$#$$###$$###+.",
".+##$$$#####$$+&&&&&&&&&&&&&&&&$$###+&&&&&&&&&&&&%$$###$$##$$#@.",
".+$$#####$$##+&&&&&&&&&&&&&&&&&%$##$@&&&&&&&&&&&&&%$##$$oo  ##@.",
".+####$$###$#+&&&&&&&&&&&&&&&&&%###$@&&&&&&&&&&&&&%$$##$OOo #$@.",
".@######$$$$$+&&&&&&&&&&&&&&&&&%$#$$+&&&&&&&&&&&&&%$$$$#OOOo$$@X",
".@#$######$$+&&&&&&&&&&&&&&&&&&$$#$$+&&&&&&&&&&&&&&%$###OOOo$$@X",
"X@##$$$$$$##+&&&&&&&&&&&&&&&&&&@$$#$@&&&&&&&&&&&&&&%$###OOOo$##X",
"X####$$$####@++++@@@@@@@@+@+++@#$$##@@@@++++@@@@+++@$$$#OOOo$#@X",
"X@$$$$#####@$$$$%%$%$$%%%%%%%%%$#$##@@$$%$%%$%%%%%%%$$##OOOo##@.",
"X+##$#$$###@&&&&&&&&&&&&&&&&&&&%$$##@&&&&&&&&&&&&&&&%$#$OOOo##@X",
"X+######$$#@&&&&&&&&&&&&&&&&&&&%$$$#+&&&&&&&&&&&&&&&%$$$OOOo$#+.",
"X@####$$$$$@&&&&&&&&&&&&&&&&&&&%$#$#+&&&&&&&&&&&&&&&%$$#OOOo$$+.",
".+##$$###$#@&&&&&&&&&&&&&&&&&&&%##$#+&&&&&&&&&&&&&&&%$##OOOo#$+.",
"X+#########@&&&&&&&&&&&&&&&&&&&%##$$+&&&&&&&&&&&&&&&%$##OOOo$#+.",
".+####$$#$$+&&&&&&&&&&&&&&&&&&&$##$$+&&&&&&&&&&&&&&&%$$#OOOo$#+X",
".+$$####$$#+&&&&&&&&&&&&&&&&&&&%#$$$+&&&&&&&&&&&&&&&%$##OOOo##+X",
".+##$$$####+&&&&&&&&&&&&&&&&&&&$#$#$@&&&&&&&&&&&&&&&%$$$OOOo##@.",
"X+###$$$###+&&&&&&&&&&&&&&&&&&&$$##$@&&&&&&&&&&&&&&&%$$#OOOo$#@.",
".+$$$###$$$@&&&&&&&&&&&&&&&&&&&@$#$#@&&&&&&&&&&&&&&&$#$#OOOo$$@.",
".@####$$$$#@+++@@@+++++@@@@@@+@#$$$#@@@@@@@@@+@@++++@###OOOo##@.",
".###########@$$$$%$$$$%%%%%%%%%$$$#$@@%$%%$$$%%%%%%$####OOOo##@.",
"X@$$##$###$$@&&&&&&&&&&&&&&&&&&%$$#$@&&&&&&&&&&&&&&%$##$OOOo$$#.",
"X@##$$$$$###@&&&&&&&&&&&&&&&&&&%$$##+&&&&&&&&&&&&&&%$$$#OOOo$#@.",
"X+#####$$$$$#@&&&&&&&&&&&&&&&&&%$$$#+&&&&&&&&&&&&&%$$$##OOOo##@.",
"X+$#########$+&&&&&&&&&&&&&&&&&%$#$#+&&&&&&&&&&&&&%$$###OOo ##@X",
"X+#$$##$#####+&&&&&&&&&&&&&&&&&%$##$+&&&&&&&&&&&&&%$##$#oo  ##+X",
"X+##$$$$$$#$$#+&&&&&&&&&&&&&&&&%$#$#@&&&&&&&&&&&&%$$#$$$######@.",
"X+$$$#####$$##+&&&&&&&&&&&&&&&&%##$#@&&&&&&&&&&&&%$$$###$$$##$@.",
"X+#####$$$#####+&&&&&&&&&&&&&&&%#$$#+&&&&&&&&&&&@$$#######$$$#+.",
".+$#$$$$#$$#$$$+&&&&&&&&&&&&&&&%#$#$+&&&&&&&&&&@$#####$$$$$$##+X",
".@#$#######$$###+&&&&&&&&&&&&&&%#$#$@&&&&&&&&++#####$$#$######+.",
".+##$$###########+&&&&&&&&&&&&&%##$$@&&&&&+++#####$$####$$##$$+X",
"X@$$$#$$$$$#$$####++&&&&&&&&&&&%$#$$@&&+++####$$$$###$$$###$##+X",
"X@########$$###$####+++&&&&&&&&$$#$$@@+#$$$#$$$#####$$####$$$#+X",
".@$$#########$$##$$$###+++@@@@@@#$$#$$$$$#########$###$$$$####@X",
".##$$$###$$$$$$$$$######$$$######$$$$#####$$$##$$$###$$$######@X",
".@####$$$$##########$$#######$$##$#####$$$###$$$###$$#####$$$##.",
".@##$$########$$$#####$$$$##$$######$$$$$##$$####$######$$$$#$@.",
".@$$$###$$$$$$##$$###$#$#$$$#########$###$$###$$$$$$#$$$$#####@.",
".@#$###$$###$$$###$$$#######$$$####$$#####$$#######$$#####$###@.",
"X@###$$$############$$$$$#####$$#$$$##########$$$#####$$$$$$##@X",
"X+##$$####$$##$$$####$##$$$$####$$###$$$##$$$$#####$######$$$#+X",
"X+$$####$$#$$$####$$$######$$$#####$$$##$$$#####$$##$$$$#####$+X",
"X+##############$$$####$$$$###$$#$$#########$$$###$$$###$$####+X",
"X++@@+@@@#@@@+@@@@++++++++@@@@#@@@@+#@@@@@+++@@@@+@@@#@@@++++++X",
"XXXX..XX......XXXX...XXXXXXXXX..X.XXXXXXXX..X...........XX..X.XX"
};
