/* XPM */
static char *e58d21224cfe4040c732ca5ad00ec8ce5wet5LgTzhIKeZfq[] = {
/* columns rows colors chars-per-pixel */
"64 64 26 1 ",
"  c None",
". c black",
"X c #202020",
"o c #2C2C2C",
"O c #543C1D",
"+ c #744C28",
"@ c #484848",
"# c gray33",
"$ c #646464",
"% c gray44",
"& c #7C7C7C",
"* c #80502C",
"= c #A86840",
"- c #B47044",
"; c #C87C4C",
": c #DC8854",
"> c #E88C58",
", c #F0945C",
"< c #FC9C60",
"1 c #FCA470",
"2 c #989898",
"3 c gray66",
"4 c #FCB080",
"5 c #FCB890",
"6 c #FCC4A4",
"7 c #FCD8C4",
/* pixels */
"                              ...                               ",
"                              ...                               ",
"                              ...                               ",
"                              ...                               ",
"                          ####%%%####                           ",
"                          ####%%%####                           ",
"                          ####%%%####                           ",
"                       @@@&&&&333&&&&@@@                        ",
"                       @@@&&&&333&&&&@@@                        ",
"                       @@@&&&&333&&&&@@@                        ",
"                       @@@&&&&333&&&&@@@                        ",
"                       @@@&&&&333&&&&@@@                        ",
"                       @@@&&&&333&&&&@@@                        ",
"                       @@@&&&&333&&&&@@@                        ",
"                   &&&&&&&@@@@&&&@@@@&&&&&&&                    ",
"                   &&&&&&&@@@@&&&@@@@&&&&&&&                    ",
"                   &&&&&&&@@@@&&&@@@@&&&&&&&                    ",
"                   &&&&&&&@@@@&&&@@@@&&&&&&&                    ",
"                ooo&&&&222ooooooooooo$$$&&&&###                 ",
"                ooo&&&&222ooooooooooo$$$&&&&###                 ",
"                ooo&&&&222ooooooooooo$$$&&&&###                 ",
"                ooo&&&&333%%%%&&&%%%%$$$&&&&@@@                 ",
"                ooo&&&&333%%%%&&&%%%%$$$&&&&@@@                 ",
"                ooo&&&&333%%%%&&&%%%%$$$&&&&@@@                 ",
"                ooo&&&&333%%%%&&&%%%%$$$&&&&@@@                 ",
"                ooo&&&&33322222222222$$$&&&&ooo                 ",
"                ooo&&&&33322222222222$$$&&&&ooo                 ",
"                ooo&&&&33322222222222$$$&&&&ooo                 ",
"                ooo@@@@22233333333333@@@@@@@...                 ",
"                ooo@@@@22233333333333@@@@@@@...                 ",
"                ooo@@@@22233333333333@@@@@@@...                 ",
"                ooo@@@@22233333333333@@@@@@@...                 ",
"                oooXXXX&&&@@@@@@@@@@@...XXXX...====             ",
"                oooXXXX&&&@@@@@@@@@@@...XXXX...====             ",
"                oooXXXX&&&@@@@@@@@@@@...XXXX...====             ",
"                oooXXXX&&&@@@@@@@@@@@...XXXX...====             ",
"            ,,,,oooXXXX$$$ooooooooooo...XXXX...====---          ",
"            ,,,,oooXXXX$$$ooooooooooo...XXXX...====---          ",
"            ,,,,oooXXXX$$$ooooooooooo...XXXX...====---          ",
"         ,,,4444444XXXX$$$ooooooooooo...XXXXOOO====---          ",
"         ,,,4444444XXXX$$$ooooooooooo...XXXXOOO====---          ",
"         ,,,4444444XXXX$$$ooooooooooo...XXXXOOO====---          ",
"         ,,,4444444XXXX$$$ooooooooooo...XXXXOOO====---          ",
"         1116666777;;;;..............XXXXXXX+++-----------      ",
"         1116666777;;;;..............XXXXXXX+++-----------      ",
"         1116666777;;;;..............XXXXXXX+++-----------      ",
"         11144447777777;;;***********--->>>>>>>::::;;;----      ",
"         11144447777777;;;***********--->>>>>>>::::;;;----      ",
"         11144447777777;;;***********--->>>>>>>::::;;;----      ",
"         11144447777777;;;***********--->>>>>>>::::;;;----      ",
"     111144444447777777777777766655554441111>>>>>>>:::----      ",
"     111144444447777777777777766655554441111>>>>>>>:::----      ",
"     111144444447777777777777766655554441111>>>>>>>:::----      ",
"     1111444>>>>4447777777777766655554441111<<<>>>>:::;;;;      ",
"     1111444>>>>4447777777777766655554441111<<<>>>>:::;;;;      ",
"     1111444>>>>4447777777777766655554441111<<<>>>>:::;;;;      ",
"     1111444>>>>4447777777777766655554441111<<<>>>>:::;;;;      ",
"     11114441111>>>444444444444444444111<<<<<<<>>>>:::;;;;      ",
"     11114441111>>>444444444444444444111<<<<<<<>>>>:::;;;;      ",
"     11114441111>>>444444444444444444111<<<<<<<>>>>:::;;;;      ",
"     11114444444<<<<<<<44444444441111111<<<<<<<>>>>:::;;;;      ",
"     11114444444<<<<<<<44444444441111111<<<<<<<>>>>:::;;;;      ",
"     11114444444<<<<<<<44444444441111111<<<<<<<>>>>:::;;;;      ",
"     11114444444<<<<<<<44444444441111111<<<<<<<>>>>:::;;;;      "
};
