/* XPM */
static char *_678abf91e024b36840c4041e51ecac7VZ5pPONMVGwP1XhA[] = {
/* columns rows colors chars-per-pixel */
"64 64 34 1 ",
"  c None",
". c black",
"X c #202020",
"o c #2C2C2C",
"O c #543C1D",
"+ c #5C401F",
"@ c #6C4824",
"# c #744C28",
"$ c #484848",
"% c gray33",
"& c #646464",
"* c gray44",
"= c #7C7C7C",
"- c #80502C",
"; c #88582F",
": c #905C35",
"> c #9C6038",
", c #A0643C",
"< c #A86840",
"1 c #B47044",
"2 c #BB7848",
"3 c #C87C4C",
"4 c #D08050",
"5 c #DC8854",
"6 c #E88C58",
"7 c #F0945C",
"8 c #FC9C60",
"9 c #FCA470",
"0 c #989898",
"q c gray66",
"w c #FCB080",
"e c #FCB890",
"r c #FCC4A4",
"t c #FCD8C4",
/* pixels */
"                                                                ",
"                                                                ",
"                                                                ",
"                            ...                                 ",
"                            ...                                 ",
"                            ...                                 ",
"                          %%***%%                               ",
"                          %%***%%                               ",
"                       $$$==qqq==$$$                            ",
"                       $$$==qqq==$$$                            ",
"                       $$$==qqq==$$$                            ",
"                       $$$==qqq==$$$                            ",
"                       $$$==qqq==$$$                            ",
"                    ======$$===$$=====                          ",
"                    ======$$===$$=====                          ",
"                    ======$$===$$=====                          ",
"                  oo===000ooooooo&&&==%%%                       ",
"                  oo===000ooooooo&&&==%%%                       ",
"                  oo===qqq**===**&&&==$$$                       ",
"                  oo===qqq**===**&&&==$$$                       ",
"                  oo===qqq**===**&&&==$$$                       ",
"                  oo===qqq0000000&&&==ooo                       ",
"                  oo===qqq0000000&&&==ooo                       ",
"                  oo$$$000qqqqqqq$$$$$...                       ",
"                  oo$$$000qqqqqqq$$$$$...                       ",
"                  oo$$$000qqqqqqq$$$$$...                       ",
"                  ooXXX===$$$$$$$...XX...<<<                    ",
"                  ooXXX===$$$$$$$...XX...<<<                    ",
"               777ooXXX&&&ooooooo...XX...<<<11                  ",
"               777ooXXX&&&ooooooo...XX...<<<11                  ",
"               777ooXXX&&&ooooooo...XX...<<<11                  ",
"             77wwwwwXXX&&&ooooooo...XXOOO<<<11                  ",
"             77wwwwwXXX&&&ooooooo...XXOOO<<<11                  ",
"             99rrrtt333..........XXXXX###11111111               ",
"             99rrrtt333..........XXXXX###11111111               ",
"             99rrrtt333..........XXXXX###11111111               ",
"             99wwwttttt333-------1116666655533111               ",
"             99wwwttttt333-------1116666655533111               ",
"             99wwwttttt333-------1116666655533111               ",
"          999wwwwwttttttttttrrreewww9966666655111               ",
"          999wwwwwttttttttttrrreewww9966666655111               ",
"          999ww666wwttttttttrrreewww9988866655333               ",
"          999ww666wwttttttttrrreewww9988866655333               ",
"          999ww666wwttttttttrrreewww9988866655333               ",
"          999ww99966wwwwwwwwwwwww9998888866655333               ",
"          999ww99966wwwwwwwwwwwww9998888866655333               ",
"          777wwwww88888wwwwwwww999998888866655333               ",
"          777wwwww88888wwwwwwww999998888866655333               ",
"          777wwwww88888wwwwwwww999998888866655333               ",
"          333333336666633377777777777733333333<<<<<             ",
"          333333336666633377777777777733333333<<<<<             ",
"        556667755522>>>;;;<<<<<,,:::3377777755555<<:::          ",
"        556667755522>>>;;;<<<<<,,:::3377777755555<<:::          ",
"        556667755522>>>;;;<<<<<,,:::3377777755555<<:::          ",
"     555667775544411>>>;;;@@+++::<<<227777774444455<<<::        ",
"     555667775544411>>>;;;@@+++::<<<227777774444455<<<::        ",
"   55666775554411111>>>;;;##@@@;;<<<224442222222255333::###     ",
"   55666775554411111>>>;;;##@@@;;<<<224442222222255333::###     ",
"   55666775554411111>>>;;;##@@@;;<<<224442222222255333::###     ",
"   111114444411>>>;;;;;;;;#####;;<<<::1115557777755333<<:::++   ",
"   111114444411>>>;;;;;;;;#####;;<<<::1115557777755333<<:::++   ",
"11144666775554411111>>>;;;#####;;;;;::5555555577777555<<:::+++++",
"11144666775554411111>>>;;;#####;;;;;::5555555577777555<<:::+++++",
"11144666775554411111>>>;;;#####;;;;;::5555555577777555<<:::+++++"
};
