/* XPM */
static char *c5fe8a7fa29e43e2b18fa7e627ba904fmWDQrnpnZD3FSfSi[] = {
/* columns rows colors chars-per-pixel */
"64 64 44 1 ",
"  c None",
". c black",
"X c #202020",
"o c #2C2C2C",
"O c #543C1D",
"+ c #5C401F",
"@ c #6C4824",
"# c #744C28",
"$ c #484848",
"% c gray33",
"& c #646464",
"* c gray44",
"= c #7C7C7C",
"- c #981200",
"; c #EC2200",
": c #FC2500",
"> c #80502C",
", c #88582F",
"< c #905C35",
"1 c #9C6038",
"2 c #A0643C",
"3 c #A86840",
"4 c #B47044",
"5 c #BB7848",
"6 c #FC5454",
"7 c #FC5C5C",
"8 c #C87C4C",
"9 c #D08050",
"0 c #DC8854",
"q c #E88C58",
"w c #F0945C",
"e c #FC9C60",
"r c #FCA470",
"t c #FCFC54",
"y c gray55",
"u c #989898",
"i c gray66",
"p c #B4B4B4",
"a c #FC9C9C",
"s c #FCB080",
"d c #FCB890",
"f c #FCC4A4",
"g c #D0D0D0",
"h c #FCD8C4",
/* pixels */
"                            --                                  ",
"                            --                                  ",
"                          --::---                               ",
"                          --::---                               ",
"                   :::    ;;aa;;;    ::                         ",
"                   :::    ;;aa;;;    ::                         ",
"                   :::    ;;aa;;;    ::                         ",
"                      667777aa7777766                           ",
"                      667777aa7777766                           ",
"                      ;;aaaattaaa66;;                           ",
"                      ;;aaaattaaa66;;                           ",
"                   ---66ttii==iiitt66;;                         ",
"                   ---66ttii==iiitt66;;                         ",
"                 --777aaiiyyggyyyiiaa77--                       ",
"                 --777aaiiyyggyyyiiaa77--                       ",
"                   ---;;==ppggppp==;;--                         ",
"                   ---;;==ppggppp==;;--                         ",
"                   ---;;==ppggppp==;;--                         ",
"                        $$ppggppp$$                             ",
"                        $$ppggppp$$                             ",
"                      ====$$==$$$====                           ",
"                      ====$$==$$$====                           ",
"                   ooo==uuooooooo&&==%%                         ",
"                   ooo==uuooooooo&&==%%                         ",
"                   ooo==ii**==***&&==$$                         ",
"                   ooo==ii**==***&&==$$                         ",
"                   ooo==iiuuuuuuu&&==oo                         ",
"                   ooo==iiuuuuuuu&&==oo                         ",
"                   ooo==iiuuuuuuu&&==oo                         ",
"                   ooo$$uuiiiiiii$$$$..                         ",
"                   ooo$$uuiiiiiii$$$$..                         ",
"                   oooXX==$$$$$$$..XX..33                       ",
"                   oooXX==$$$$$$$..XX..33                       ",
"                 wwoooXX&&ooooooo..XX..33444                    ",
"                 wwoooXX&&ooooooo..XX..33444                    ",
"               wwsssssXX&&ooooooo..XXOO33444                    ",
"               wwsssssXX&&ooooooo..XXOO33444                    ",
"               wwsssssXX&&ooooooo..XXOO33444                    ",
"               rrffhhh88.........XXXX##4444444                  ",
"               rrffhhh88.........XXXX##4444444                  ",
"               rrsshhhhh88>>>>>>>44qqqq0088844                  ",
"               rrsshhhhh88>>>>>>>44qqqq0088844                  ",
"             rrsssshhhhhhhhhffdddssrrqqqq00044                  ",
"             rrsssshhhhhhhhhffdddssrrqqqq00044                  ",
"             rrssqqssshhhhhhffdddssrreeqq00088                  ",
"             rrssqqssshhhhhhffdddssrreeqq00088                  ",
"             rrssrrqqqsssssssssssrreeeeqq00088                  ",
"             rrssrrqqqsssssssssssrreeeeqq00088                  ",
"             rrssrrqqqsssssssssssrreeeeqq00088                  ",
"             wwsssseeeeessssssrrrrreeeeqq00088                  ",
"             wwsssseeeeessssssrrrrreeeeqq00088                  ",
"             888888qqqqq88wwwwwwwwwww88888883333                ",
"             888888qqqqq88wwwwwwwwwww88888883333                ",
"           00qqww0055511,,3333222<<88wwww0000033<<              ",
"           00qqww0055511,,3333222<<88wwww0000033<<              ",
"        000qqww009944411,,@@++<<<3355wwww999990033<<            ",
"        000qqww009944411,,@@++<<<3355wwww999990033<<            ",
"      00qqqww00994444411,,##@@,,,33559955555550088<<###         ",
"      00qqqww00994444411,,##@@,,,33559955555550088<<###         ",
"      00qqqww00994444411,,##@@,,,33559955555550088<<###         ",
"      4444499994411,,,,,,,####,,,33<<4400wwwww008833<<<++       ",
"      4444499994411,,,,,,,####,,,33<<4400wwwww008833<<<++       ",
"    4499qqqww00994444411,,####,,,,,<<0000000wwww0033<<<++++     ",
"    4499qqqww00994444411,,####,,,,,<<0000000wwww0033<<<++++     "
};
