/* XPM */
static char *d961803e9aa242b9b0601bba8fc4cc89Qm9g5CYEA6e5fEFQ[] = {
/* columns rows colors chars-per-pixel */
"64 64 36 1 ",
"  c None",
". c black",
"X c #202020",
"o c #2C2C2C",
"O c #373737",
"+ c #5C401F",
"@ c #744C28",
"# c #484848",
"$ c gray33",
"% c #646464",
"& c gray44",
"* c #7C7C7C",
"= c #80502C",
"- c #88582F",
"; c #905C35",
": c #9C6038",
"> c #A0643C",
", c #A86840",
"< c #B47044",
"1 c #BB7848",
"2 c #C87C4C",
"3 c #D08050",
"4 c #DC8854",
"5 c #E88C58",
"6 c #F0945C",
"7 c #FC9C60",
"8 c #FCA470",
"9 c gray55",
"0 c #989898",
"q c gray66",
"w c #B4B4B4",
"e c #FCB080",
"r c #FCB890",
"t c #FCBC9C",
"y c #FCC4A4",
"u c #FCD8C4",
/* pixels */
"                              OOO                               ",
"                              OOO                               ",
"                            $$&&&$$                             ",
"                            $$&&&$$                             ",
"                          ##**qqq**##                           ",
"                          ##**qqq**##                           ",
"                          ##**qqq**##                           ",
"                          ##**qqq**##                           ",
"                          ##**qqq**##                           ",
"                          ##**qqq**##                           ",
"                          ##**qqq**##                           ",
"                          ##**qqq**##                           ",
"                          ##**qqq**##                           ",
"                        ****%%999%%****                         ",
"                        ****%%999%%****                         ",
"                      %%****%%999%%****%%                       ",
"                      %%****%%999%%****%%                       ",
"                      $$**qqOO###OO%%**$$                       ",
"                      $$**qqOO###OO%%**$$                       ",
"                      $$0000ooooooo%%**##                       ",
"                      $$0000ooooooo%%**##                       ",
"                      $$qqww&&***&&%%**OO                       ",
"                      $$qqww&&***&&%%**OO                       ",
"                      $$qqwwwwwwwww%%##oo<<                     ",
"                      $$qqwwwwwwwww%%##oo<<                     ",
"                      $$qqwwwwwwwww%%##oo<<                     ",
"                    88$$99ww9999999####..<<<<                   ",
"                    88$$99ww9999999####..<<<<                   ",
"                  88tt$$$$**#######ooXX..<<<<                   ",
"                  88tt$$$$**#######ooXX..<<<<                   ",
"                  88tt%%$$%%ooooooo..XX..11<<<<                 ",
"                  88tt%%$$%%ooooooo..XX..11<<<<                 ",
"                  88tt**$$%%ooooooo....$$2211<<                 ",
"                  88tt**$$%%ooooooo....$$2211<<                 ",
"                8888eeee**$$.......XX$$<<2211<<                 ",
"                8888eeee**$$.......XX$$<<2211<<                 ",
"                8888eeuurr22=======<<55554422<<                 ",
"                8888eeuurr22=======<<55554422<<                 ",
"                88eeeeuuyyyyyyyyyrree88555544<<                 ",
"                88eeeeuuyyyyyyyyyrree88555544<<                 ",
"                88eeeeuuyyyyyyyyyrree88555544<<                 ",
"                88ee55eeyyyyyyyyyrree8877554422                 ",
"                88ee55eeyyyyyyyyyrree8877554422                 ",
"                88ee885588888888888887777554422                 ",
"                88ee885588888888888887777554422                 ",
"                66eeee5555777777777777755553322                 ",
"                66eeee5555777777777777755553322                 ",
"                44eeeeee44333333333333333333322                 ",
"                44eeeeee44333333333333333333322                 ",
"             333333333<<11111111111>>,,,,,,,,,,===              ",
"             333333333<<11111111111>>,,,,,,,,,,===              ",
"           33666665533,,::::22111@@<<223333<<<<,,,==            ",
"           33666665533,,::::22111@@<<223333<<<<,,,==            ",
"           33666665533<<,,::@@@@@>><<2222,,,,<<,,,==            ",
"           33666665533<<,,::@@@@@>><<2222,,,,<<,,,==            ",
"         33445554411::<<,,--@@@@@>><<<<::::::;;;;;--==          ",
"         33445554411::<<,,--@@@@@>><<<<::::::;;;;;--==          ",
"         33445554411::<<,,--@@@@@>><<<<::::::;;;;;--==          ",
"       336666666662222::==----+++@@>>::,,11<<<<,,,;;====        ",
"       336666666662222::==----+++@@>>::,,11<<<<,,,;;====        ",
"       5566665553322<<,,,,==@@+++@@::,,111111<<,,,,,====        ",
"       5566665553322<<,,,,==@@+++@@::,,111111<<,,,,,====        ",
"     3366666633333<<,,,,;;;;@@+++@@::,,111111<<<<<,,,,====      ",
"     3366666633333<<,,,,;;;;@@+++@@::,,111111<<<<<,,,,====      "
};
