/* XPM */
static char *_0ea3d402d634d23ffeee056c1897b5bivAeu5U5hRhDAFAr[] = {
/* columns rows colors chars-per-pixel */
"64 64 34 1 ",
"  c None",
". c black",
"X c #202020",
"o c #2C2C2C",
"O c #543C1D",
"+ c #5C401F",
"@ c #6C4824",
"# c #744C28",
"$ c #484848",
"% c gray33",
"& c #646464",
"* c gray44",
"= c #7C7C7C",
"- c #80502C",
"; c #88582F",
": c #905C35",
"> c #9C6038",
", c #A0643C",
"< c #A86840",
"1 c #B47044",
"2 c #BB7848",
"3 c #C87C4C",
"4 c #D08050",
"5 c #DC8854",
"6 c #E88C58",
"7 c #F0945C",
"8 c #FC9C60",
"9 c #FCA470",
"0 c #989898",
"q c gray66",
"w c #FCB080",
"e c #FCB890",
"r c #FCC4A4",
"t c #FCD8C4",
/* pixels */
"                            ...                                 ",
"                            ...                                 ",
"                            ...                                 ",
"                         %%%***%%%%                             ",
"                         %%%***%%%%                             ",
"                         %%%***%%%%                             ",
"                      $$$===qqq====$$$                          ",
"                      $$$===qqq====$$$                          ",
"                      $$$===qqq====$$$                          ",
"                      $$$===qqq====$$$                          ",
"                      $$$===qqq====$$$                          ",
"                      $$$===qqq====$$$                          ",
"                   ======$$$===$$$$======                       ",
"                   ======$$$===$$$$======                       ",
"                   ======$$$===$$$$======                       ",
"                ooo===000oooooooooo&&&===%%%                    ",
"                ooo===000oooooooooo&&&===%%%                    ",
"                ooo===000oooooooooo&&&===%%%                    ",
"                ooo===qqq***===****&&&===$$$                    ",
"                ooo===qqq***===****&&&===$$$                    ",
"                ooo===qqq***===****&&&===$$$                    ",
"                ooo===qqq0000000000&&&===ooo                    ",
"                ooo===qqq0000000000&&&===ooo                    ",
"                ooo===qqq0000000000&&&===ooo                    ",
"                ooo$$$000qqqqqqqqqq$$$$$$...                    ",
"                ooo$$$000qqqqqqqqqq$$$$$$...                    ",
"                ooo$$$000qqqqqqqqqq$$$$$$...                    ",
"                oooXXX===$$$$$$$$$$...XXX...<<<                 ",
"                oooXXX===$$$$$$$$$$...XXX...<<<                 ",
"                oooXXX===$$$$$$$$$$...XXX...<<<                 ",
"             777oooXXX&&&oooooooooo...XXX...<<<111              ",
"             777oooXXX&&&oooooooooo...XXX...<<<111              ",
"             777oooXXX&&&oooooooooo...XXX...<<<111              ",
"             777oooXXX&&&oooooooooo...XXX...<<<111              ",
"          777wwwwwwXXX&&&oooooooooo...XXXOOO<<<111              ",
"          777wwwwwwXXX&&&oooooooooo...XXXOOO<<<111              ",
"          777wwwwwwXXX&&&oooooooooo...XXXOOO<<<111              ",
"          999rrrttt333.............XXXXXX###111111111           ",
"          999rrrttt333.............XXXXXX###111111111           ",
"          999rrrttt333.............XXXXXX###111111111           ",
"          999wwwtttttt333----------111666666555333111           ",
"          999wwwtttttt333----------111666666555333111           ",
"          999wwwtttttt333----------111666666555333111           ",
"       999wwwwwwttttttttttttrrreeeewww999666666555111           ",
"       999wwwwwwttttttttttttrrreeeewww999666666555111           ",
"       999wwwwwwttttttttttttrrreeeewww999666666555111           ",
"       999www666wwwtttttttttrrreeeewww999888666555333           ",
"       999www666wwwtttttttttrrreeeewww999888666555333           ",
"       999www666wwwtttttttttrrreeeewww999888666555333           ",
"       777www999666wwwwwwwwwwwwwwww999888888666555333           ",
"       777www999666wwwwwwwwwwwwwwww999888888666555333           ",
"       777www999666wwwwwwwwwwwwwwww999888888666555333           ",
"       777wwwwww888888wwwwwwwww9999999888888666555333           ",
"       777wwwwww888888wwwwwwwww9999999888888666555333           ",
"       777wwwwww888888wwwwwwwww9999999888888666555333           ",
"       3333333336666663337777777777777777333333333<<<<<<        ",
"       3333333336666663337777777777777777333333333<<<<<<        ",
"       3333333336666663337777777777777777333333333<<<<<<        ",
"    555666777555222>>>;;;<<<<<<,,,,:::333777777555555<<<:::     ",
"    555666777555222>>>;;;<<<<<<,,,,:::333777777555555<<<:::     ",
"    555666777555222>>>;;;<<<<<<,,,,:::333777777555555<<<:::     ",
" 555666777555444111>>>;;;@@@+++::::<<<222777777444444555<<<:::  ",
" 555666777555444111>>>;;;@@@+++::::<<<222777777444444555<<<:::  ",
" 555666777555444111>>>;;;@@@+++::::<<<222777777444444555<<<:::  "
};
