/* XPM */
static char *result[] = {
/* columns rows colors chars-per-pixel */
"64 64 13 1 ",
"  c #2F2F37",
". c #3D3D43",
"X c #515151",
"o c #646464",
"O c #797979",
"+ c #10349C",
"@ c #1034BD",
"# c #16448D",
"$ c #20598B",
"% c #1044AC",
"& c #1855BD",
"* c #446FDC",
"= c #6995F4",
/* pixels */
"ooOOOoooXXooooXXXXX....  .  ....XooooooooooXXoooXXoXX...XXXXoXoo",
"oOOoooooXoooXXXXXXXX.....  ....XooooooooooooXXoXooXXXX...XXXXooo",
"OooOoXXXooXXX.XXXX..X.XX......XXoooooooooXXXoXXooXX.X...XXXooooo",
"OOooooXXXXXXXX...XX..XX.... .X.XXoXXooOOooXXXXXXXXXX.  ...oXXXXo",
"OoXXXXXXXXXXX.. .  ...  .  .....XXooOOOoXXXoXXXXXXX...  .XXXXXoo",
"oXXXXX..XX.    ....  ..   .....XXooOOOoXXooXXXXX..XX... XX....XX",
"...X.  ..  . .         .... ...X.XXoooOooXXXX...XX..   ..XX.X..X",
"..X. ..XXXXXXX. ##%%%#  ....  ..X..XooooXX..XX .X.  @@# ...X....",
".XXXooooOOOOo$$%%&&%%%## ..    ...XXXXXX.  ..      @&*@#  ....XX",
"XXoooooooo$$%%%&%%&&%##%# ....    ..XXX...     .. @&*&&&#...XX.X",
"ooooXXXoo$%%$$&%&&&*&&&%% X....     ..    ..XX.. @&****&#.......",
"XXoXXooXXo%$$%%#%%****&&%..XX   #&&#    .XXXX.XX @@&&***OX  ....",
".XXXXXXXoooOOOOO#%%&*&*%oX.. ##&&*&&#XXoXooOOOOo#@##@&OOX..XXX..",
"..XX.XXooooOooooO&%%&&&oo..##&***&&*#ooXoOOOOOOO@##oOOXXX.XoXoX.",
"....XXXXXooOoXXXXoo&%%Oo..##&&&****&OOOoooooOOOOOOooooooXooooXXX",
"... .XXXoooOXXXXXXXoOOoX.. ##&*&&*OOOOooooooOOoOoooooooXXXooXXXX",
".     .ooXooXXXXXX..XX.   ..###&OOooOooooooooOooooooooXX..XX..X.",
"   ...  ..Xo.XXX.....  .   ..oOOooXoOooooooooOooooooooooXX... .X",
".X..X...X...XX...XX.... .... ..XXooOoooooXoooOoooooXXooXXXX...  ",
"..XXXX.XXXXXXXXXXXXX...   ..  XXXooooooooXXooOooooooXXooXXXXXXX.",
"OOOOooooXXXoXXXXXX..       .. .XXXoooooXoXXoooXoooXXooXXXXoXXXXX",
"ooOOOOoooooXXXXX..  %%&&%%%  . XXXooooooXX@@@ooXoooXXXXXXoooXXXo",
"XooOOOOOoXXXXoo.. %&&&***&&&% ..XoXoooXXX@$&&@XXXoXXX..X..oXoXoo",
"oXoOOoooXXXoooXX %&&***&&*&%%%..XXXXoooX$$*&*=@XXXXXXX..XXXXXooX",
"XooOoooooooXXXXX&***&==*&&**&#%X.XooXXX$&*&*=*@.X.....  .XXXXXXX",
"oooOooooooooXXX&*&*=**==****&##XXXXX...&**====&X. ..   .....XXXX",
"XooOoooooXXXooX%&*&&====*&&**&#.X....XXo&&*=*&O...   .....XX.XXX",
"XooOoXoooo.XXXXX&&&**==*&&**&*#...XXXXXoO&&**OX ...   .....XXXXX",
"XXoOooX...X...X.oo&&**&&OO&&&&OoooXoXXXXoOOOOX .    .. ..XooXoXX",
"XXXO..&%%..X  .X..oO&&&OooO&&OOOooooXooXXooXXX. ..   .. .ooooXXX",
"XXX. %%*&&   ....XXXOOOXXooOOOOOOOooooXXoXXXX.......  ..XXooXoXX",
"XX. %&*==*& ........XX..X.oooOOooooXX.   ..XXXX.... ....X.XooXXX",
"XX.&&==*==*X. ......   ..XXoOOX..X..  ######...X.........XXXXXXX",
"XX.&====***X..  ...   . .XXXX%@@..  ##&&###&##X........  .X..XXX",
"X..o&*=***Oo  ...  ...X.XXX.@@%%@@##&&&###&#&&#.. . ..  ....XXXX",
"XX..o&&=*Oo    ....XXXXXXX.@@&@%@%&&&&&&&##&&###..    .   ....XX",
"..XX.oOOOo   ....XXXXoooXX.@&%%&&&&***%&*&*&*&&#  . .. %$ ..... ",
" ......XX..   ..X.XXooXXXXX%&%&%&&***%&*&***&&## .... %$%$ .   .",
". .... ......  ...XoXXXXXXX.%&&&&*%%******&#&###.. . &%&%%   ...",
"............... ##..XXX.XX..%%%&&&&%%***=**&#&#oX .. %&&&% ...XX",
"XXX..X....X.   ++%#....X..XXo%&&**&&*&==*&&*&#XX     %&*&&$ooooX",
"ooooX...XX.   ++%#%#.XX..XX..o%@@&&*&&&==*&OoX. ..  %%&&*$$OooOo",
"ooXXoOOoo  #++%##%&#+.XXXX...XoO@@&@**&&OOOo ...... &%&*&&$OOOoo",
"ooooooOO++###%%%&&%##.XXoXXX....OO@**OOOoo.... .... &&**&*&$Oooo",
"ooooOOo+##%&%&&&#%#+OOooXoooOXXXX.OOOoo ....  . XX.&*&*=***&oooo",
"oooooooo+##%&&&%%#OOoOOOooOOOOoooXXXX.   X...  ..XX&&*=*=*&&oooo",
"oooooXXXoo%##%++OOooOOOOOOooooOoooXX  &*&##... ...X&**==***&oooo",
"oXXoooXX..oOOOOOooooooooooooooooooX.#&*&*&##. .. ..%*====*&@oooo",
"ooXXXXoXX.X.XXXXooooX..XXooooooooo.#&&&**&*&#.    .%&*====@@oooo",
"ooXXoXXX. .X...XXoX..+++&XoooooooX##&*&&**&&&..    @@***=*@&OXoo",
"oXooXXX. .......XX.++&*&*&XooooooX#&&&***=*@O. . ..X@&*&***&Oooo",
"XXXooXXX...... ...++&***&&Xoooooo#&#&**===&@O......XO@&&*&&Ooooo",
"..X.X..... ..   .&&*==****&oXXooo#&**==*=&@OOX..  ..oOO&&@Oo.X..",
" ..X.  ....    ..&*=*===*&&oXoXXo#*&====*@@OoX...   .ooOOOXXX.. ",
".  ...  . ....   *===**==*&OoXXXoO&&**==&@Ooo......   XXX  ...  ",
"XXXXX... ...  .  **=**==*&#OoX..XoO&&==*OOoooo.... ...   ...  ..",
"oooooooXXoXX.XXoo&**==*&&&#OX.... oOOOOOOOOOoXXX.....   . ..XXoo",
"OooOOOoooXXoXXooX&&&****&##oX  ...ooOOOOOOOoooXXXX.....  .XoXoOO",
"OOOoOooooooooooooO&**&####OX  . ..XoOOOOoooXXXooXXXX...XoXoXoooO",
"oOOOooooXoooooXoooX&&&&#OOX . ...XXXoOOoooXooXXXXXX.....XoooooOo",
"ooOooooooXXooXXXXoooOOOOoo.  . .X.XoooOoooooooXXXX.X. XXoooooooo",
"oooOooooooXXooXXXXoXXoooXXX. . ..XoXoooOoooooXXooXXoX .XXooooXoo",
"ooOOooooooooXXXXXoXXXX.X.X...  ..XXooooOooooooooXXoXo. .XooXooXX",
"oooOOooooooXXXXXXXXXX. ...X.. ..XXoooooOoooooooXXooo...XXoXooXXo"
};
